<?xml version="1.0" encoding="utf-8"?>
<!-- Generator: Adobe Illustrator 17.0.0, SVG Export Plug-In . SVG Version: 6.00 Build 0)  -->
<!DOCTYPE svg PUBLIC "-//W3C//DTD SVG 1.1//EN" "http://www.w3.org/Graphics/SVG/1.1/DTD/svg11.dtd">
<svg version="1.1" id="Layer_1" xmlns="http://www.w3.org/2000/svg" xmlns:xlink="http://www.w3.org/1999/xlink" x="0px" y="0px"
	 width="205px" height="82px" viewBox="0 0 205 82" enable-background="new 0 0 205 82" xml:space="preserve">
<g>
	<path fill="#FFFFFF" d="M12.833,32.059c1.144,0,2.188,0.101,3.13,0.303c0.943,0.203,1.75,0.534,2.423,0.993
		c0.673,0.46,1.195,1.071,1.565,1.834c0.371,0.763,0.555,1.706,0.555,2.827c0,1.212-0.275,2.222-0.824,3.03
		c-0.55,0.808-1.364,1.469-2.439,1.986c1.48,0.426,2.586,1.173,3.315,2.239c0.729,1.066,1.094,2.351,1.094,3.854
		c0,1.212-0.235,2.261-0.706,3.147s-1.105,1.611-1.902,2.171c-0.797,0.561-1.706,0.976-2.726,1.246
		c-1.021,0.269-2.07,0.404-3.148,0.404H1.524V32.059H12.833z M12.159,41.785c0.943,0,1.717-0.223,2.323-0.673
		c0.605-0.449,0.909-1.178,0.909-2.189c0-0.56-0.101-1.02-0.303-1.38c-0.202-0.359-0.471-0.64-0.808-0.841
		c-0.337-0.203-0.724-0.342-1.162-0.422c-0.438-0.078-0.892-0.118-1.364-0.118H6.808v5.62L12.159,41.785L12.159,41.785z
		 M12.463,51.983c0.517,0,1.009-0.051,1.48-0.152c0.471-0.101,0.886-0.269,1.246-0.505c0.359-0.237,0.645-0.555,0.859-0.959
		c0.213-0.404,0.32-0.92,0.32-1.548c0-1.233-0.348-2.115-1.043-2.642s-1.615-0.791-2.76-0.791H6.808v6.597
		C6.808,51.983,12.463,51.983,12.463,51.983z"/>
	<path fill="#FFFFFF" d="M28.012,32.059h5.924l5.621,9.491l5.587-9.491h5.89l-8.918,14.809v9.222h-5.285v-9.356L28.012,32.059z"/>
	<path fill="#FFFFFF" d="M56.553,36.502v-4.443h19.69v4.443h-7.203V56.09h-5.284V36.502H56.553z"/>
	<g>
		<path fill="#00A9E5" d="M84.386,32.059h17.973v4.443H84.386V32.059z"/>
		<path fill="#0072BB" d="M84.386,41.979h17.973v4.443H84.386V41.979z"/>
		<path fill="#0056A3" d="M84.386,51.9h17.973v4.443H84.386V51.9z"/>
	</g>
	<path fill="#FFFFFF" d="M121.946,32.059c1.548,0,2.989,0.247,4.324,0.74c1.334,0.494,2.491,1.234,3.466,2.222
		c0.977,0.987,1.738,2.221,2.289,3.703c0.55,1.48,0.825,3.22,0.825,5.217c0,1.75-0.225,3.365-0.674,4.847
		c-0.449,1.48-1.128,2.76-2.037,3.837c-0.909,1.077-2.041,1.925-3.398,2.541c-1.358,0.618-2.957,0.925-4.796,0.925h-10.367V32.059
		H121.946z M121.576,51.648c0.763,0,1.503-0.124,2.221-0.371c0.718-0.246,1.357-0.656,1.918-1.229
		c0.56-0.571,1.009-1.318,1.346-2.239c0.337-0.919,0.505-2.041,0.505-3.365c0-1.212-0.118-2.305-0.353-3.281
		c-0.237-0.976-0.622-1.81-1.161-2.507c-0.538-0.695-1.251-1.229-2.137-1.599c-0.886-0.371-1.98-0.555-3.281-0.555h-3.769v15.146
		C116.865,51.648,121.576,51.648,121.576,51.648z"/>
	<path fill="#FFFFFF" d="M156.14,55.904c-1.144,0.483-2.3,0.724-3.466,0.724c-1.841,0-3.495-0.32-4.965-0.959
		c-1.469-0.639-2.71-1.519-3.719-2.642c-1.01-1.122-1.783-2.439-2.322-3.954c-0.537-1.514-0.808-3.147-0.808-4.897
		c0-1.794,0.269-3.461,0.808-4.997s1.313-2.877,2.322-4.023c1.009-1.144,2.25-2.041,3.719-2.692
		c1.469-0.651,3.125-0.976,4.965-0.976c1.233,0,2.428,0.185,3.584,0.555c1.155,0.371,2.198,0.914,3.13,1.632
		c0.931,0.719,1.699,1.604,2.305,2.658c0.605,1.054,0.976,2.266,1.111,3.635h-5.049c-0.314-1.346-0.92-2.355-1.817-3.03
		c-0.898-0.673-1.986-1.009-3.264-1.009c-1.19,0-2.2,0.23-3.03,0.69s-1.503,1.077-2.02,1.852c-0.517,0.774-0.892,1.656-1.128,2.642
		c-0.237,0.987-0.354,2.008-0.354,3.063c0,1.01,0.118,1.991,0.354,2.945c0.235,0.954,0.611,1.811,1.128,2.574
		s1.189,1.376,2.02,1.834c0.829,0.46,1.84,0.69,3.03,0.69c1.749,0,3.101-0.443,4.056-1.33c0.953-0.886,1.51-2.171,1.665-3.854
		h-5.317v-3.938h10.096v12.991h-3.366l-0.537-2.726C158.329,54.575,157.285,55.422,156.14,55.904z"/>
	<path fill="#FFFFFF" d="M190.806,32.059v4.443h-12.688v5.149h11.645v4.107h-11.645v5.89h12.957v4.443h-18.241V32.059H190.806z"/>
	<g>
		<path fill="#FFFFFF" d="M196.846,25.983v-0.61h2.701v0.61h-0.988v2.688h-0.724v-2.688H196.846z"/>
		<path fill="#FFFFFF" d="M200.946,25.372l0.771,2.268h0.01l0.729-2.268h1.02v3.298h-0.679v-2.338h-0.009l-0.809,2.338h-0.559
			l-0.808-2.313h-0.01v2.313h-0.678v-3.298C199.925,25.372,200.946,25.372,200.946,25.372z"/>
	</g>
</g>
</svg>
